<?xml version="1.0" encoding="UTF-8" standalone="no"?>
<!DOCTYPE svg PUBLIC "-//W3C//DTD SVG 1.1//EN" "http://www.w3.org/Graphics/SVG/1.1/DTD/svg11.dtd">
<svg width="100%" height="100%" viewBox="0 0 6214 2679" version="1.1" xmlns="http://www.w3.org/2000/svg" xmlns:xlink="http://www.w3.org/1999/xlink" xml:space="preserve" xmlns:serif="http://www.serif.com/" style="fill-rule:evenodd;clip-rule:evenodd;stroke-linejoin:round;stroke-miterlimit:2;">
    <g transform="matrix(1,0,0,1,25,-126.541636)">
        <g transform="matrix(1,0,0,1,-6181,-11069.926446)">
            <g id="baldes" transform="matrix(-1.718667,0,-0,-1.718667,19260.794444,28341.969157)">
                <path d="M4271.428,8703.421L7346.268,8703.421C7341.576,8733.286 7353.24,8767.069 7364.243,8792.713C7398.911,8870.671 7448.411,8912.755 7438.495,9010.546C7431.077,9081.088 7400.12,9157.838 7374.161,9212.296C7332.035,9129.38 7292.452,9074.921 7254.077,9047.671C7218.16,9022.921 7188.452,9024.171 7167.411,9040.255C7135.243,9067.504 7137.703,9119.464 7143.91,9157.838C7157.536,9242.005 7193.41,9294.005 7158.744,9386.838C7132.786,9452.463 7083.244,9519.297 7043.66,9565.088C7025.077,9473.505 7000.327,9410.38 6970.619,9374.463C6942.161,9342.297 6913.661,9334.838 6888.912,9346.005C6850.535,9363.338 6839.41,9414.088 6835.703,9452.463C6827.036,9536.63 6848.077,9597.255 6789.911,9677.714C6749.035,9734.672 6683.453,9785.421 6633.911,9820.088C6638.869,9727.255 6631.453,9659.171 6611.661,9617.088C6594.328,9578.713 6567.077,9563.838 6541.076,9567.546C6498.995,9575.005 6475.494,9620.796 6461.869,9656.672C6430.91,9737.13 6437.119,9800.255 6360.37,9863.379C6304.661,9907.964 6229.16,9940.13 6170.994,9959.963C6200.698,9872.046 6211.828,9805.213 6203.161,9759.421C6195.744,9716.088 6173.447,9695.046 6147.453,9692.588C6105.369,9688.88 6070.744,9727.255 6048.447,9758.171C5997.703,9827.505 5986.535,9890.63 5896.202,9931.463C5831.828,9959.963 5748.91,9971.088 5689.494,9976.046C5740.244,9898.046 5767.453,9836.172 5771.161,9789.13C5774.869,9747.046 5760.036,9721.046 5735.286,9711.13C5695.661,9696.297 5651.119,9724.754 5621.411,9749.505C5555.786,9802.755 5528.577,9860.922 5430.786,9877.004C5360.203,9888.172 5278.536,9877.004 5219.119,9867.13C5288.411,9805.213 5330.494,9752.004 5346.619,9707.421C5361.452,9667.838 5352.786,9638.13 5331.744,9623.255C5297.077,9598.505 5247.578,9614.588 5212.911,9629.463C5134.953,9664.13 5092.869,9713.63 4995.077,9703.713C4924.494,9696.297 4847.744,9665.339 4793.286,9639.338C4876.244,9597.255 4930.702,9557.672 4957.911,9519.297C4982.702,9483.38 4981.452,9453.672 4965.369,9432.63C4938.119,9400.463 4886.119,9402.921 4847.744,9409.129C4763.577,9421.505 4711.619,9458.63 4618.785,9422.754C4551.911,9397.963 4486.328,9348.463 4440.535,9308.838C4532.119,9290.297 4595.244,9265.546 4631.16,9235.838C4663.328,9207.38 4670.744,9177.672 4659.619,9154.13C4642.286,9115.755 4591.536,9104.63 4553.16,9100.921C4468.994,9092.255 4408.327,9113.296 4327.869,9055.129C4270.952,9014.255 4220.202,8948.672 4185.535,8899.13C4278.369,8904.088 4346.453,8896.671 4388.535,8876.879C4426.911,8858.296 4441.744,8832.296 4438.036,8806.296C4430.619,8764.214 4384.827,8740.713 4348.91,8727.088C4321.272,8716.453 4295.678,8710.204 4271.428,8703.421Z" style="fill:rgb(209,155,93);"/>
            </g>
        </g>
        <g transform="matrix(1,0,0,1,-6181,-11069.926446)">
            <g transform="matrix(1,0,0,0.858059,3461,6319.793956)">
                <path d="M8909,7986L8909,8532C8909,8682.673 8804.036,8805 8674.75,8805L2929.25,8805C2799.964,8805 2695,8682.673 2695,8532L2695,7986C2695,7835.327 2799.964,7713 2929.25,7713L8674.75,7713C8804.036,7713 8909,7835.327 8909,7986Z"/>
            </g>
        </g>
        <g transform="matrix(1,0,0,1,-6181,-11069.926446)">
            <g transform="matrix(1.048646,0,0,1.048646,3078.22897,4887.144651)">
                <g transform="matrix(2.195938,0,0,1.497538,-5921.895124,-3745.724998)">
                    <path d="M4260.461,7799.779L4243.225,7799.779C4232.943,7799.779 4225.383,7801.405 4220.545,7804.656C4215.707,7807.908 4211.649,7814.375 4208.374,7824.056C4205.098,7833.738 4203.107,7845.23 4202.401,7858.532L4185.316,7858.532L4185.316,7772.952L4390.491,7772.952L4390.491,7858.532L4373.406,7858.532C4370.18,7835.474 4365.644,7819.918 4359.798,7811.862C4353.952,7803.807 4344.628,7799.779 4331.827,7799.779L4314.136,7799.779L4314.136,8012.178C4314.136,8025.924 4315.724,8035.495 4318.899,8040.89C4322.074,8046.285 4328.752,8048.982 4338.933,8048.982L4344.225,8048.982L4344.225,8073.592L4230.978,8073.592L4230.978,8048.982L4235.816,8048.982C4246.097,8048.982 4252.775,8046.211 4255.85,8040.668C4258.924,8035.125 4260.461,8025.629 4260.461,8012.178L4260.461,7799.779Z" style="fill:rgb(221,221,221);"/>
                    <path d="M4430.408,7992.446L4426.476,8007.3C4423.654,8017.795 4422.243,8025.185 4422.243,8029.472C4422.243,8036.714 4423.906,8041.777 4427.232,8044.659C4430.559,8047.541 4436.002,8048.982 4443.562,8048.982L4443.562,8073.592L4375.825,8073.592L4375.825,8048.982C4388.727,8048.982 4399.563,8032.871 4408.333,8000.649L4471.382,7767.631L4489.072,7767.631L4553.331,8000.427C4559.682,8023.485 4565.427,8037.342 4570.568,8041.998C4575.709,8046.654 4580.648,8048.982 4585.385,8048.982L4585.385,8073.592L4483.629,8073.592L4483.629,8048.982C4492.802,8048.982 4498.497,8047.689 4500.714,8045.102C4502.932,8042.516 4504.041,8039.227 4504.041,8035.236C4504.041,8031.689 4503.134,8027.033 4501.319,8021.268L4499.354,8014.395L4493.457,7992.446L4430.408,7992.446ZM4436.909,7966.949L4486.653,7966.949L4461.101,7877.156L4436.909,7966.949Z" style="fill:rgb(221,221,221);"/>
                    <path d="M4667.183,7941.009L4667.183,8012.178C4667.183,8025.924 4668.796,8035.495 4672.022,8040.89C4675.247,8046.285 4681.849,8048.982 4691.828,8048.982L4695.457,8048.982L4695.457,8073.592L4584.932,8073.592L4584.932,8048.982L4589.014,8048.982C4599.295,8048.982 4605.973,8046.211 4609.048,8040.668C4612.122,8035.125 4613.659,8025.629 4613.659,8012.178L4613.659,7834.366C4613.659,7820.62 4612.046,7811.049 4608.821,7805.654C4605.595,7800.259 4598.993,7797.562 4589.014,7797.562L4584.932,7797.562L4584.932,7772.952L4667.183,7772.73L4685.629,7772.508C4703.874,7772.508 4717.205,7773.395 4725.621,7775.169C4734.038,7776.943 4742.329,7781.192 4750.493,7787.917C4758.658,7794.642 4765.084,7803.843 4769.771,7815.52C4774.458,7827.197 4776.802,7839.761 4776.802,7853.211C4776.802,7888.981 4762.992,7913.443 4735.373,7926.598C4742.732,7933.397 4754.172,7954.681 4769.695,7990.45C4781.791,8018.09 4790.409,8034.756 4795.55,8040.446C4800.691,8046.137 4806.336,8048.982 4812.484,8048.982L4812.484,8073.592L4748.376,8073.592C4742.53,8063.393 4731.694,8037.527 4715.869,7995.993C4707.906,7975.005 4702.312,7961.48 4699.086,7955.42C4695.86,7949.36 4692.559,7945.48 4689.183,7943.78C4685.806,7942.08 4678.473,7941.157 4667.183,7941.009ZM4667.183,7913.96C4684.218,7914.256 4695.709,7912.741 4701.656,7909.415C4707.603,7906.089 4712.291,7900.103 4715.718,7891.456C4719.145,7882.81 4720.858,7871.096 4720.858,7856.315C4720.858,7835.179 4717.457,7820.546 4710.653,7812.416C4703.849,7804.287 4692.131,7800.222 4675.499,7800.222C4673.382,7800.222 4670.61,7800.296 4667.183,7800.444L4667.183,7913.96Z" style="fill:rgb(221,221,221);"/>
                    <path d="M4880.372,7799.779L4863.136,7799.779C4852.854,7799.779 4845.294,7801.405 4840.456,7804.656C4835.618,7807.908 4831.56,7814.375 4828.285,7824.056C4825.009,7833.738 4823.018,7845.23 4822.312,7858.532L4805.227,7858.532L4805.227,7772.952L5010.402,7772.952L5010.402,7858.532L4993.317,7858.532C4990.091,7835.474 4985.555,7819.918 4979.709,7811.862C4973.863,7803.807 4964.539,7799.779 4951.738,7799.779L4934.047,7799.779L4934.047,8012.178C4934.047,8025.924 4935.635,8035.495 4938.81,8040.89C4941.985,8046.285 4948.663,8048.982 4958.844,8048.982L4964.136,8048.982L4964.136,8073.592L4850.889,8073.592L4850.889,8048.982L4855.727,8048.982C4866.008,8048.982 4872.686,8046.211 4875.761,8040.668C4878.835,8035.125 4880.372,8025.629 4880.372,8012.178L4880.372,7799.779Z" style="fill:rgb(221,221,221);"/>
                    <path d="M5050.318,7992.446L5046.387,8007.3C5043.565,8017.795 5042.154,8025.185 5042.154,8029.472C5042.154,8036.714 5043.817,8041.777 5047.143,8044.659C5050.47,8047.541 5055.913,8048.982 5063.473,8048.982L5063.473,8073.592L4995.736,8073.592L4995.736,8048.982C5008.638,8048.982 5019.474,8032.871 5028.244,8000.649L5091.293,7767.631L5108.983,7767.631L5173.242,8000.427C5179.593,8023.485 5185.338,8037.342 5190.479,8041.998C5195.62,8046.654 5200.559,8048.982 5205.296,8048.982L5205.296,8073.592L5103.54,8073.592L5103.54,8048.982C5112.713,8048.982 5118.408,8047.689 5120.625,8045.102C5122.843,8042.516 5123.952,8039.227 5123.952,8035.236C5123.952,8031.689 5123.045,8027.033 5121.23,8021.268L5119.265,8014.395L5113.368,7992.446L5050.318,7992.446ZM5056.82,7966.949L5106.564,7966.949L5081.012,7877.156L5056.82,7966.949Z" style="fill:rgb(221,221,221);"/>
                    <path d="M5286.641,7954.755L5286.641,8012.178C5286.641,8026.072 5288.228,8035.68 5291.403,8041.001C5294.579,8046.322 5301.458,8048.982 5312.042,8048.982L5312.042,8073.592L5205.145,8073.592L5205.145,8048.982L5208.32,8048.982C5218.602,8048.982 5225.28,8046.211 5228.354,8040.668C5231.428,8035.125 5232.965,8025.629 5232.965,8012.178L5232.965,7834.366C5232.965,7820.62 5231.378,7811.049 5228.203,7805.654C5225.028,7800.259 5218.4,7797.562 5208.32,7797.562L5205.145,7797.562L5205.145,7772.952L5314.461,7772.952L5314.461,7797.562L5311.135,7797.562C5300.954,7797.562 5294.327,7800.333 5291.252,7805.876C5288.178,7811.419 5286.641,7820.915 5286.641,7834.366L5286.641,7918.173L5342.13,7843.234C5351.807,7830.227 5356.645,7819.585 5356.645,7811.308C5356.645,7802.144 5350.547,7797.562 5338.35,7797.562L5338.35,7772.952L5429.069,7772.952L5429.069,7797.562C5420.803,7797.562 5412.135,7800.666 5403.063,7806.874C5393.991,7813.081 5381.139,7827.493 5364.507,7850.107L5345.91,7875.382L5402.307,7998.21C5411.782,8018.903 5419.619,8032.539 5425.818,8039.116C5432.017,8045.693 5440.308,8048.982 5450.69,8048.982L5450.69,8073.592L5332.907,8073.592L5332.907,8048.982C5348.229,8048.982 5355.889,8044.474 5355.889,8035.458C5355.889,8031.615 5352.764,8023.042 5346.515,8009.739L5307.506,7926.376L5286.641,7954.755Z" style="fill:rgb(221,221,221);"/>
                    <path d="M5536.705,7980.509L5529.892,7987.774L5521.222,7986.412L5517.197,7987.32L5508.836,7988.682L5498.308,7987.774C5496.656,7988.379 5494.282,7988.682 5491.186,7988.682L5487.16,7988.682L5479.729,7990.044L5477.561,7989.136L5466.104,7990.952C5464.865,7989.742 5463.833,7989.136 5463.007,7989.136C5461.769,7989.136 5460.324,7989.893 5458.672,7991.406L5453.408,7990.044L5447.525,7990.044L5442.261,7980.055L5442.261,7970.974L5446.286,7970.519L5449.383,7964.617L5457.124,7969.157L5459.911,7967.795C5460.943,7968.098 5462.388,7968.249 5464.246,7968.249L5465.794,7968.249L5467.652,7967.341L5467.652,7969.157L5470.749,7970.519L5472.916,7968.249L5476.942,7969.157L5483.445,7969.157L5497.689,7968.249L5498.308,7970.519L5499.546,7970.065L5500.785,7971.428L5504.811,7969.611C5506.462,7970.822 5508.526,7971.428 5511.004,7971.428C5512.655,7971.428 5514.41,7970.974 5516.268,7970.065L5521.222,7971.882L5524.938,7971.882C5531.957,7971.882 5535.879,7974.757 5536.705,7980.509Z" style="fill:rgb(221,221,221);"/>
                    <path d="M5568.446,8073.592L5568.446,7766L5661.747,7766C5674.493,7766 5685.437,7772.729 5694.578,7786.186C5703.718,7799.643 5708.289,7815.663 5708.289,7834.247L5708.289,7851.549C5708.289,7871.521 5704.41,7887.221 5696.653,7898.649C5688.897,7910.077 5677.261,7917.126 5661.747,7919.796C5677.261,7919.796 5688.897,7926.658 5696.653,7940.382C5704.41,7954.106 5708.289,7969.993 5708.289,7988.043L5708.289,8005.345C5708.289,8023.822 5703.682,8039.816 5694.468,8053.326C5685.255,8066.837 5674.348,8073.592 5661.747,8073.592L5568.446,8073.592ZM5614.987,7902.814L5638.367,7902.814C5644.704,7902.814 5650.185,7899.423 5654.81,7892.641C5659.435,7885.859 5661.747,7877.823 5661.747,7868.531L5661.747,7834.247C5661.747,7824.955 5659.435,7816.972 5654.81,7810.296C5650.185,7803.621 5644.704,7800.284 5638.367,7800.284L5614.987,7800.284L5614.987,7902.814ZM5614.987,8039.308L5638.367,8039.308C5644.704,8039.308 5650.185,8035.944 5654.81,8029.216C5659.435,8022.487 5661.747,8014.53 5661.747,8005.345L5661.747,7971.061C5661.747,7948.206 5653.954,7936.778 5638.367,7936.778L5614.987,7936.778L5614.987,8039.308Z" style="fill:rgb(221,221,221);"/>
                    <path d="M5848.132,7766L5894.674,7766L5894.674,8005.345C5894.674,8023.822 5890.103,8039.816 5880.963,8053.326C5871.822,8066.837 5860.878,8073.592 5848.132,8073.592L5801.372,8073.592C5788.626,8073.592 5777.682,8066.89 5768.542,8053.487C5759.401,8040.083 5754.83,8024.036 5754.83,8005.345L5754.83,7766L5801.372,7766L5801.372,8005.345C5801.372,8014.53 5803.648,8022.487 5808.2,8029.216C5812.753,8035.944 5818.27,8039.308 5824.752,8039.308C5831.234,8039.308 5836.752,8035.944 5841.304,8029.216C5845.856,8022.487 5848.132,8014.53 5848.132,8005.345L5848.132,7766Z" style="fill:rgb(221,221,221);"/>
                    <path d="M5941.215,8073.592L5941.215,7766L6034.517,7766C6047.263,7766 6058.207,7772.729 6067.348,7786.186C6076.488,7799.643 6081.059,7815.663 6081.059,7834.247L6081.059,8005.345C6081.059,8023.822 6076.488,8039.816 6067.348,8053.326C6058.207,8066.837 6047.263,8073.592 6034.517,8073.592L5941.215,8073.592ZM5987.757,8039.308L6011.137,8039.308C6017.619,8039.308 6023.137,8035.944 6027.689,8029.216C6032.241,8022.487 6034.517,8014.53 6034.517,8005.345L6034.517,7834.247C6034.517,7824.955 6032.205,7816.972 6027.58,7810.296C6022.955,7803.621 6017.474,7800.284 6011.137,7800.284L5987.757,7800.284L5987.757,8039.308Z" style="fill:rgb(221,221,221);"/>
                    <path d="M6127.6,8073.592L6127.6,7766L6220.902,7766C6233.648,7766 6244.592,7772.729 6253.732,7786.186C6262.873,7799.643 6267.444,7815.663 6267.444,7834.247L6267.444,7852.831C6267.444,7868.104 6263.875,7882.816 6256.737,7896.967C6249.599,7911.118 6237.654,7918.194 6220.902,7918.194L6244.064,7918.194C6250.473,7918.194 6255.972,7921.558 6260.561,7928.287C6265.149,7935.015 6267.444,7943.079 6267.444,7952.478L6267.444,8073.592L6220.902,8073.592L6220.902,7971.061C6220.902,7961.663 6218.59,7953.599 6213.965,7946.871C6209.339,7940.142 6203.859,7936.778 6197.522,7936.778L6174.142,7936.778L6174.142,8073.592L6127.6,8073.592ZM6174.142,7902.814L6197.522,7902.814C6203.859,7902.814 6209.339,7899.423 6213.965,7892.641C6218.59,7885.859 6220.902,7877.823 6220.902,7868.531L6220.902,7834.247C6220.902,7824.955 6218.59,7816.972 6213.965,7810.296C6209.339,7803.621 6203.859,7800.284 6197.522,7800.284L6174.142,7800.284L6174.142,7902.814Z" style="fill:rgb(221,221,221);"/>
                    <path d="M6360.527,7766L6407.287,7766C6420.033,7766 6430.977,7772.729 6440.117,7786.186C6449.258,7799.643 6453.829,7815.663 6453.829,7834.247L6453.829,8005.345C6453.829,8023.822 6449.258,8039.816 6440.117,8053.326C6430.977,8066.837 6420.033,8073.592 6407.287,8073.592L6360.527,8073.592C6347.781,8073.592 6336.837,8066.89 6327.696,8053.487C6318.556,8040.083 6313.985,8024.036 6313.985,8005.345L6313.985,7834.247C6313.985,7815.557 6318.556,7799.509 6327.696,7786.106C6336.837,7772.702 6347.781,7766 6360.527,7766ZM6360.527,7834.247L6360.527,8005.345C6360.527,8014.53 6362.803,8022.487 6367.355,8029.216C6371.907,8035.944 6377.425,8039.308 6383.907,8039.308C6390.389,8039.308 6395.907,8035.944 6400.459,8029.216C6405.011,8022.487 6407.287,8014.53 6407.287,8005.345L6407.287,7834.247C6407.287,7824.955 6404.974,7816.972 6400.349,7810.296C6395.724,7803.621 6390.244,7800.284 6383.907,7800.284C6377.497,7800.284 6371.998,7803.621 6367.41,7810.296C6362.821,7816.972 6360.527,7824.955 6360.527,7834.247Z" style="fill:rgb(221,221,221);"/>
                    <path d="M6500.37,8073.592L6500.37,7766L6546.912,7766L6546.912,8039.308L6616.833,8039.308L6616.833,8073.592L6500.37,8073.592Z" style="fill:rgb(221,221,221);"/>
                </g>
            </g>
        </g>
    </g>
</svg>
